<svg xmlns="http://www.w3.org/2000/svg" fill="none" viewBox="0 0 144 32"><g fill="#000" clip-path="url(#a)"><path d="M12.547 19.158v-5.273c0-.775.375-1.503 1.008-1.956l6.846-4.9c.44-.314.969-.484 1.51-.484h.022c.563 0 1.108.175 1.561.5l6.826 4.884a2.406 2.406 0 0 1 1.008 1.956v4.23c0 .775-.375 1.503-1.008 1.956l-6.84 4.89a2.665 2.665 0 0 1-3.091-.001l-2.334-1.67v-6.507c0-.086.097-.135.167-.085l3.654 2.614a.106.106 0 0 0 .123 0l4.51-3.227a.105.105 0 0 0 0-.17L22 12.688a.106.106 0 0 0-.123 0l-9.161 6.555c-.07.05-.168 0-.168-.085ZM54.255 24.423V12.47h2.76v1.98h.034c.22-.686.565-1.207 1.034-1.561.477-.355 1.102-.532 1.875-.532.196 0 .37.004.522.011.16.008.295.019.41.034v2.536a9.828 9.828 0 0 0-.535-.057 9.368 9.368 0 0 0-.818-.034c-.447 0-.856.106-1.227.317-.363.204-.655.513-.875.928-.212.415-.318.936-.318 1.562v6.77h-2.862ZM67.075 24.695c-1.173 0-2.207-.26-3.1-.781a5.543 5.543 0 0 1-2.08-2.196c-.492-.936-.738-2.023-.738-3.26 0-1.238.246-2.324.738-3.26a5.523 5.523 0 0 1 2.08-2.207c.893-.529 1.927-.793 3.1-.793 1.182 0 2.216.264 3.102.793a5.445 5.445 0 0 1 2.067 2.207c.5.936.75 2.022.75 3.26s-.25 2.324-.75 3.26a5.464 5.464 0 0 1-2.067 2.196c-.886.52-1.92.78-3.102.78Zm0-2.388c.614 0 1.144-.155 1.59-.465.455-.309.804-.75 1.046-1.324.25-.581.375-1.268.375-2.06 0-.8-.125-1.487-.375-2.06-.242-.581-.59-1.027-1.045-1.336-.447-.317-.977-.475-1.59-.475-.614 0-1.148.158-1.602.475-.455.31-.807.755-1.057 1.336-.242.573-.363 1.26-.363 2.06s.12 1.487.363 2.06c.25.574.602 1.015 1.057 1.324.454.31.988.465 1.601.465ZM86.855 24.695c-1.174 0-2.208-.26-3.1-.781a5.54 5.54 0 0 1-2.08-2.196c-.492-.936-.739-2.023-.739-3.26 0-1.238.247-2.324.739-3.26a5.52 5.52 0 0 1 2.08-2.207c.892-.529 1.926-.793 3.1-.793 1.182 0 2.215.264 3.102.793a5.441 5.441 0 0 1 2.067 2.207c.5.936.75 2.022.75 3.26s-.25 2.324-.75 3.26a5.46 5.46 0 0 1-2.067 2.196c-.887.52-1.92.78-3.102.78Zm0-2.388c.614 0 1.144-.155 1.59-.465.455-.309.803-.75 1.046-1.324.25-.581.374-1.268.374-2.06 0-.8-.124-1.487-.374-2.06-.243-.581-.591-1.027-1.046-1.336-.446-.317-.976-.475-1.59-.475-.613 0-1.147.158-1.602.475-.454.31-.806.755-1.056 1.336-.242.573-.364 1.26-.364 2.06s.122 1.487.364 2.06c.25.574.602 1.015 1.056 1.324.455.31.989.465 1.602.465ZM123.977 24.661c-1.037 0-1.95-.26-2.738-.781-.78-.52-1.386-1.249-1.817-2.185-.425-.935-.637-2.022-.637-3.26 0-1.222.216-2.301.648-3.237.432-.936 1.038-1.664 1.818-2.185.78-.52 1.681-.78 2.704-.78.522 0 1.007.07 1.453.214.455.136.864.347 1.228.634.363.287.674.65.931 1.087h.023v-6.61h2.862v16.865h-2.817v-1.822h-.022a3.92 3.92 0 0 1-.932 1.154 3.738 3.738 0 0 1-1.238.68 4.63 4.63 0 0 1-1.466.226Zm.67-2.388c.629 0 1.174-.155 1.636-.465.462-.316.822-.762 1.08-1.335.257-.581.386-1.26.386-2.038 0-.777-.129-1.452-.386-2.026-.258-.573-.618-1.019-1.08-1.336-.462-.316-1.007-.475-1.636-.475-.583 0-1.098.15-1.545.453-.446.294-.795.728-1.045 1.301-.249.567-.375 1.26-.375 2.083 0 .823.126 1.52.375 2.094.25.574.599 1.008 1.045 1.302.447.294.962.442 1.545.442Z"/><path fill-rule="evenodd" d="M40.684 24.423V7.557h6.464c1.242 0 2.314.22 3.215.657.909.438 1.606 1.06 2.09 1.868.493.807.739 1.762.739 2.863 0 1.11-.25 2.068-.75 2.875-.5.808-1.208 1.434-2.124 1.88-.91.437-1.985.656-3.227.656h-3.408v6.067h-2.999Zm8.032-8.965c-.485.227-1.064.34-1.738.34h-3.295v-5.682h3.295c.674 0 1.253.117 1.738.35.492.227.867.551 1.124.974.265.415.398.917.398 1.505 0 .589-.133 1.098-.398 1.528-.257.423-.632.751-1.124.985Z" clip-rule="evenodd"/><path d="M80.68 12.47v2.298h-2.442v9.655h-2.874v-9.655h-2.159V12.47h2.159v-1.743c0-.687.14-1.264.42-1.732A2.63 2.63 0 0 1 77.01 7.92c.545-.242 1.212-.363 2-.363h1.67v2.298h-1.103c-.484 0-.83.102-1.034.306-.204.204-.306.55-.306 1.041v1.268h2.442ZM98.335 24.661c-.833 0-1.571-.177-2.215-.532-.644-.362-1.147-.894-1.511-1.596-.363-.71-.545-1.574-.545-2.592V12.47h2.863v7.018c0 .875.212 1.54.636 1.992.432.453 1.026.68 1.784.68.507 0 .957-.102 1.352-.306.393-.204.704-.52.931-.951.227-.438.34-.996.34-1.675V12.47h2.875v11.953h-2.817v-1.86a4.716 4.716 0 0 1-1.08 1.26c-.697.559-1.568.838-2.613.838ZM109.566 17.666v6.757h-2.863V12.47h2.818v1.85a4.598 4.598 0 0 1 1.068-1.25c.704-.559 1.575-.838 2.612-.838.841 0 1.583.181 2.226.544.644.354 1.148.883 1.512 1.584.363.702.545 1.566.545 2.592v7.471h-2.874v-7.018c0-.875-.212-1.54-.636-1.992-.417-.453-1.011-.68-1.784-.68-.5 0-.947.103-1.34.306a2.24 2.24 0 0 0-.943.951c-.227.43-.341.989-.341 1.676Z"/></g><defs><clipPath id="a"><path fill="#fff" d="M12 6h119v20H12z"/></clipPath></defs></svg>